<svg xmlns:dc="http://purl.org/dc/elements/1.1/" xmlns:rdf="http://www.w3.org/1999/02/22-rdf-syntax-ns#" xmlns:cc="http://creativecommons.org/ns#" xmlns:svg="http://www.w3.org/2000/svg" xmlns="http://www.w3.org/2000/svg" xmlns:xlink="http://www.w3.org/1999/xlink" id="svg2" x="0px" y="0px" width="164.986px" height="131.08px" viewBox="0 0 164.986 131.08" xml:space="preserve">
<g id="g10" transform="matrix(1.3333333,0,0,-1.3333333,0,131.08)">
	<g id="g12" transform="scale(0.1)">
		<path id="path14" d="M4.081,130.568c566.99,455.643,706.765-14.165,1233.289,174.185    C645.976-61.795,532.648,420.117,4.081,130.568"></path>
		<path id="path16" d="M4.081,173.078c232.896,688.576,605.508,368.595,947.695,810.059    C716.933,379.658,324.018,653.06,4.081,173.078"></path>
		<path id="path18" d="M0.002,94.108C528.598,357.385,670.314-98.226,1231.313,256.091    C621.696-258.267,538.727,175.136,0.002,94.108"></path>
		<path id="path20" d="M1188.217,94.284c26.682,0,47.864-20.596,47.864-46.978c0-26.353-21.182-47.307-48.127-47.307    s-48.413,20.955-48.413,47.307c0,26.382,21.467,46.978,48.413,46.978H1188.217z M1187.661,84.843    c-20.361,0-36.152-16.875-36.152-37.537c0-20.947,15.791-37.529,36.709-37.529c20.361-0.293,35.823,16.582,35.823,37.236    c0,20.955-15.461,37.83-36.086,37.83H1187.661z M1180.483,22.968h-10.854v47.014c4.285,0.513,10.342,1.406,18.032,1.406    c8.848,0,12.927-1.406,16.062-3.713c2.82-2.043,4.856-5.5,4.856-10.042c0-5.742-4.307-9.434-9.771-11.177v-0.601    c4.6-1.443,6.914-5.156,8.32-11.47c1.45-7.141,2.6-9.741,3.464-11.418h-11.484c-1.377,1.677-2.271,5.72-3.721,11.418    c-0.886,4.9-3.721,7.192-9.734,7.192h-5.171V22.968z M1180.791,49.313h5.156c5.991,0,10.891,1.978,10.891,6.877    c0,4.307-3.186,7.17-10.071,7.17c-2.856,0-4.827-0.293-5.977-0.557V49.313"></path>
	</g>
</g>
</svg>